/* XPM */
static char *close_inactive[] = {
/* columns rows colors chars-per-pixel */
"34 26 21 1 ",
"  c #DD9495",
". c #DD9596",
"X c #DE9596",
"o c #DE9697",
"O c #DE9798",
"+ c #DE9899",
"@ c #DF9899",
"# c #DE9999",
"$ c #DF999A",
"% c #DE9A9A",
"& c #DF9A9A",
"* c #DF9A9B",
"= c #DF9B9C",
"- c #DF9C9D",
"; c #E09B9C",
": c #E7B5B6",
"> c #E7B6B6",
", c #E8B7B8",
"< c #EFCDCE",
"1 c #F0CDCD",
"2 c #F5DEDE",
/* pixels */
"            XO&====&OX            ",
"          X$==========&X          ",
"         $==============$         ",
"        $================&        ",
"       &==================&       ",
"      $====================@      ",
"     X======================X     ",
"     &======================&     ",
"    .========-======-========X    ",
"    O=======-1>====>1-=======+    ",
"    &========:2,==:2,========&    ",
"    ;=========:2,:2,==========    ",
"    ===========>22>===========    ",
"    ===========>22>===========    ",
"    ==========:2,:2,==========    ",
"    &========:2,==:2,========%    ",
"    O=======-<>====>1-=======+    ",
"    .========-======-========.    ",
"     &======================%     ",
"     .======================X     ",
"      $====================+      ",
"       %==================&       ",
"        &================&        ",
"         $==============+         ",
"          o#==========&X          ",
"            .+&===*%+.            "
};
