/* XPM */
static char *close_prelight[] = {
/* columns rows colors chars-per-pixel */
"34 34 24 1 ",
"  c #BF2D2F",
". c #C02F31",
"X c #C03133",
"o c #C13234",
"O c #C13436",
"+ c #C23537",
"@ c #C23638",
"# c #C23739",
"$ c #C2383A",
"% c #C3393B",
"& c #C33A3C",
"* c #C33B3D",
"= c #C43C3E",
"- c #C43D3F",
"; c #C54042",
": c #C54143",
"> c #C54243",
", c #C54344",
"< c #DB8B8B",
"1 c #DC8B8C",
"2 c #DD9090",
"3 c #F0CDCD",
"4 c #F0CDCE",
"5 c #FEFDFD",
/* pixels */
"           .+&-;::;-&O.           ",
"         o*>>>>>>>>>>>>*o         ",
"       .=>>>>>>>>>>>>>>>>*.       ",
"      O:>>>>>>>>>>>>>>>>>>:O      ",
"     #>>>>>>>>>>>>>>>>>>>>>>$     ",
"    #>>>>>>>>>>>>>>>>>>>>>>>>#    ",
"   O>>>>>>>>>>>>>>>>>>>>>>>>>>O   ",
"  .:>>>>>>>>>>>>>>>>>>>>>>>>>>:.  ",
"  =>>>>>>>>>>>>>>>>>>>>>>>>>>>>*  ",
" o>>>>>>>>>>>>>>>>>>>>>>>>>>>>>>o ",
" *>>>>>>>>>>>>>>>>>>>>>>>>>>>>>>* ",
".>>>>>>>>>>>>>>>>>>>>>>>>>>>>>>>>.",
"+>>>>>>>>>>>>,>>>>>>,>>>>>>>>>>>>O",
"&>>>>>>>>>>>,41>>>>14,>>>>>>>>>>>%",
"->>>>>>>>>>>><52>><52>>>>>>>>>>>>-",
";>>>>>>>>>>>>><52<52>>>>>>>>>>>>>;",
":>>>>>>>>>>>>>>1551>>>>>>>>>>>>>>:",
":>>>>>>>>>>>>>>1551>>>>>>>>>>>>>>:",
";>>>>>>>>>>>>><52<52>>>>>>>>>>>>>;",
"->>>>>>>>>>>><52>><52>>>>>>>>>>>>-",
"&>>>>>>>>>>>,31>>>>14,>>>>>>>>>>>%",
"+>>>>>>>>>>>>,>>>>>>,>>>>>>>>>>>>O",
".>>>>>>>>>>>>>>>>>>>>>>>>>>>>>>>>.",
" *>>>>>>>>>>>>>>>>>>>>>>>>>>>>>>* ",
" X>>>>>>>>>>>>>>>>>>>>>>>>>>>>>>o ",
"  *>>>>>>>>>>>>>>>>>>>>>>>>>>>>*  ",
"  .:>>>>>>>>>>>>>>>>>>>>>>>>>>:.  ",
"   O>>>>>>>>>>>>>>>>>>>>>>>>>>O   ",
"    #>>>>>>>>>>>>>>>>>>>>>>>>#    ",
"     @>>>>>>>>>>>>>>>>>>>>>>$     ",
"      O:>>>>>>>>>>>>>>>>>>:O      ",
"       .*>>>>>>>>>>>>>>>>*.       ",
"         o*>>>>>>>>>>>>*X         ",
"           .O%-;::;-%O.           "
};
