/* XPM */
static char *close_inactive[] = {
/* columns rows colors chars-per-pixel */
"34 26 21 1 ",
"  c #DC8F90",
". c #DC9091",
"X c #DD9091",
"o c #DD9192",
"O c #DD9293",
"+ c #DD9394",
"@ c #DE9394",
"# c #DD9495",
"$ c #DE9495",
"% c #DD9596",
"& c #DE9596",
"* c #DE9697",
"= c #DF9697",
"- c #DE9797",
"; c #DE9798",
": c #DE9899",
"> c #E7B2B3",
", c #E7B4B4",
"< c #EECACC",
"1 c #EECBCC",
"2 c #F4DCDD",
/* pixels */
"            XO&*--*&OX            ",
"          X$;;;;;;;;;;&X          ",
"         $;;;;;;;;;;;;;;$         ",
"        $;;;;;;;;;;;;;;;;&        ",
"       &;;;;;;;;;;;;;;;;;;&       ",
"      $;;;;;;;;;;;;;;;;;;;;@      ",
"     X;;;;;;;;;;;;;;;;;;;;;;X     ",
"     &;;;;;;;;;;;;;;;;;;;;;;&     ",
"    .;;;;;;;;:;;;;;;:;;;;;;;;X    ",
"    O;;;;;;;:1>;;;;>1:;;;;;;;@    ",
"    &;;;;;;;;>2,;;>2,;;;;;;;;&    ",
"    =;;;;;;;;;>2,>2,;;;;;;;;;*    ",
"    -;;;;;;;;;;>22>;;;;;;;;;;-    ",
"    -;;;;;;;;;;>22>;;;;;;;;;;-    ",
"    *;;;;;;;;;>2,>2,;;;;;;;;;*    ",
"    &;;;;;;;;>2,;;>2,;;;;;;;;%    ",
"    O;;;;;;;:<>;;;;>1:;;;;;;;@    ",
"    .;;;;;;;;:;;;;;;:;;;;;;;;.    ",
"     &;;;;;;;;;;;;;;;;;;;;;;%     ",
"     .;;;;;;;;;;;;;;;;;;;;;;X     ",
"      $;;;;;;;;;;;;;;;;;;;;+      ",
"       %;;;;;;;;;;;;;;;;;;&       ",
"        &;;;;;;;;;;;;;;;;&        ",
"         $;;;;;;;;;;;;;;+         ",
"          o#;;;;;;;;;;&X          ",
"            .@&*--&%@.            "
};
