/* XPM */
static char *close_active[] = {
/* columns rows colors chars-per-pixel */
"34 26 38 1 ",
"  c #A42728",
". c #A72729",
"X c #A62A2B",
"o c #A62A2C",
"O c #A72B2D",
"+ c #AA282A",
"@ c #AF292B",
"# c #B22A2C",
"$ c #B92C2E",
"% c #BA2C2E",
"& c #BB2C2E",
"* c #BE2D2F",
"= c #BF2D2F",
"- c #AE3334",
"; c #AE3335",
": c #B2383A",
"> c #B3393A",
", c #B43A3B",
"< c #BA4143",
"1 c #BB4243",
"2 c #BB4344",
"3 c #BB4345",
"4 c #BF4849",
"5 c #BF484A",
"6 c #C54E50",
"7 c #C54F51",
"8 c #C95455",
"9 c #C95456",
"0 c #CB5658",
"q c #CB5759",
"w c #CC5658",
"e c #CC5759",
"r c #CC585A",
"t c #E09899",
"y c #E19C9D",
"u c #F1D2D3",
"i c #F2D3D3",
"p c #FEFDFD",
/* pixels */
"============&#+.  .+#&============",
"==========$+O>569964>O+%==========",
"========*@o2weeeeeeeeq3o@*========",
"=======*+;8eeeeeeeeeeee8;+*=======",
"======*+,eeeeeeeeeeeeeeee>+*======",
"======@-weeeeeeeeeeeeeeeee;@======",
"=====$o8eeeeeeeeeeeeeeeeee8o%=====",
"=====+2eeeeeeeeeeeeeeeeeeee1+=====",
"====&Oweeeeeereeeeeereeeeee0o&====",
"====#,eeeeeeriteeeetireeeeee>#====",
"====+4eeeeeeetpyeetpyeeeeeee4+====",
"====.7eeeeeeeetpytpyeeeeeeee6.====",
"==== 9eeeeeeeeetppteeeeeeeee9 ====",
"==== 8eeeeeeeeetppteeeeeeeee8 ====",
"====.6eeeeeeeetpytpyeeeeeeee6.====",
"====+4eeeeeeetpyeetpyeeeeeee4+====",
"====#>eeeeeeruteeeetireeeeee:#====",
"====&O0eeeeeereeeeeereeeeee0o&====",
"=====+2eeeeeeeeeeeeeeeeeeee1+=====",
"=====%o8eeeeeeeeeeeeeeeeee8o%=====",
"======@-weeeeeeeeeeeeeeeee;@======",
"======*+>weeeeeeeeeeeeeew>+*======",
"=======*+;8eeeeeeeeeeee8;+*=======",
"========*@X<0eeeeeeee02o@*========",
"==========%+o>469964:o+%==========",
"============&#+.  .+#&============"
};
