/* XPM */
static char *close_prelight[] = {
/* columns rows colors chars-per-pixel */
"34 26 62 1 ",
"  c #A42728",
". c #A72729",
"X c #AA282A",
"o c #AF292B",
"O c #B22A2C",
"+ c #B92C2E",
"@ c #BA2C2E",
"# c #BB2C2E",
"$ c #BE2D2F",
"% c #BF2D2F",
"& c #A82F31",
"* c #A83031",
"= c #A93132",
"- c #B34243",
"; c #B34244",
": c #B34344",
"> c #B34345",
", c #B94D4F",
"< c #B94E4F",
"1 c #B94F50",
"2 c #BA4F51",
"3 c #CC5759",
"4 c #CC585A",
"5 c #CD595B",
"6 c #CD5A5C",
"7 c #CE5D5F",
"8 c #CE5E60",
"9 c #CE5F61",
"0 c #C46061",
"q c #C56061",
"w c #C56161",
"e c #C56162",
"r c #C56263",
"t c #C56264",
"y c #CF6163",
"u c #CF6263",
"i c #CF6264",
"p c #CA6B6C",
"a c #CB6C6D",
"s c #CB6D6E",
"d c #D16769",
"f c #D47172",
"g c #D47173",
"h c #D47274",
"j c #D57678",
"k c #D67778",
"l c #D2797A",
"z c #D37A7C",
"x c #D78283",
"c c #D98284",
"v c #D98385",
"b c #DA8385",
"n c #D88485",
"m c #DA8485",
"M c #D98486",
"N c #D88586",
"B c #DA8486",
"V c #E09899",
"C c #E19C9D",
"Z c #F1D2D3",
"A c #F2D3D3",
"S c #FEFDFD",
/* pixels */
"%%%%%%%%%%%%#OX.  .XO#%%%%%%%%%%%%",
"%%%%%%%%%%+X=1slNNla1=X@%%%%%%%%%%",
"%%%%%%%%$o*rBjd9559djMt*o$%%%%%%%%",
"%%%%%%%$X>xg6333333336gx;X$%%%%%%%",
"%%%%%%$X2vy333333333333um1X$%%%%%%",
"%%%%%%o:c7333333333333337m;o%%%%%%",
"%%%%%+*xy3333333333333333ux*@%%%%%",
"%%%%%Xrf333333333333333333hwX%%%%%",
"%%%%#=B63333343333334333336v*#%%%%",
"%%%%O2j333334AV3333VA433333k1O%%%%",
"%%%%Xad333333VSC33VSC333333daX%%%%",
"%%%%.z83333333VSCVSC33333339l.%%%%",
"%%%% n633333333VSSV333333336n %%%%",
"%%%% n633333333VSSV333333336n %%%%",
"%%%%.l83333333VSCVSC33333339l.%%%%",
"%%%%Xad333333VSC33VSC333333dpX%%%%",
"%%%%O1j333334ZV3333VA433333k,O%%%%",
"%%%%#=v63333343333334333336v*#%%%%",
"%%%%%Xrg333333333333333333hqX%%%%%",
"%%%%%@*xu3333333333333333ix*@%%%%%",
"%%%%%%o-b7333333333333337m;o%%%%%%",
"%%%%%%$X1bu333333333333ib<X$%%%%%%",
"%%%%%%%$X;xh6333333336hx;X$%%%%%%%",
"%%%%%%%%$o&0vkd9669dkve*o$%%%%%%%%",
"%%%%%%%%%%@X*<alnnla,*X@%%%%%%%%%%",
"%%%%%%%%%%%%#OX.  .XO#%%%%%%%%%%%%"
};
