/* XPM */
static char *hide_inactive[] = {
/* columns rows colors chars-per-pixel */
"34 26 41 1 ",
"  c #BA7B7C",
". c #BB7E7F",
"X c #BC7D7E",
"o c #BD7D7E",
"O c #BC7E7F",
"+ c #C07F80",
"@ c #C28384",
"# c #C38384",
"$ c #C58384",
"% c #C68384",
"& c #C28485",
"* c #C98586",
"= c #CA8586",
"- c #C68888",
"; c #C78889",
": c #C6898A",
"> c #C7898A",
", c #CE8F8F",
"< c #D18B8B",
"1 c #D28B8C",
"2 c #D38C8D",
"3 c #D48C8D",
"4 c #D68E8F",
"5 c #D78E8F",
"6 c #CD8F90",
"7 c #CE8F90",
"8 c #CF8F90",
"9 c #D88F90",
"0 c #CE9090",
"q c #CE9091",
"w c #D29394",
"e c #D39394",
"r c #D79899",
"t c #D89899",
"y c #DA9C9D",
"u c #DA9D9D",
"i c #DA9D9E",
"p c #DB9D9E",
"a c #DC9D9E",
"s c #DD9E9F",
"d c #F3DDDE",
/* pixels */
"9999999999992*+o  o+*2999999999999",
"9999999999<+.;wruure;.+19999999999",
"999999995$X,sssssssssaqX$599999999",
"99999994+&pssssssssssssi&+49999999",
"9999995+:ssssssssssssssss;+5999999",
"999999$#ssssssssssssssssss&%999999",
"99999<XpssssssssssssssssssyX199999",
"99999+0ssssssssssssssssssss8+99999",
"99992.sssssssssssssssssssssaO29999",
"9999*>ssssssssssssssssssssss;=9999",
"9999+esssssssssssssssssssssse+9999",
"9999orssssssssssssssssssssssto9999",
"9999 ussssssssssssssssssssssu 9999",
"9999 pssssssssssssssssssssssi 9999",
"9999otssssssssssssssssssssssro9999",
"9999+esssssssddddddddssssssse+9999",
"9999*;ssssssssssssssssssssss-=9999",
"99992.assssssssssssssssssssaX39999",
"99999+,ssssssssssssssssssss7+99999",
"999991XissssssssssssssssssyX199999",
"999999$@ssssssssssssssssss&%999999",
"9999995+;ssssssssssssssss;+5999999",
"99999994+&issssssssssssy&+49999999",
"999999995$X6assssssssa,X%599999999",
"99999999991+O;eruure-X+19999999999",
"9999999999992=+o  o+=3999999999999"
};
