/* XPM */
static char *hide_inactive[] = {
/* columns rows colors chars-per-pixel */
"34 26 15 1 ",
"  c #DD9495",
". c #DD9596",
"X c #DE9596",
"o c #DE9697",
"O c #DE9798",
"+ c #DE9899",
"@ c #DF9899",
"# c #DE9999",
"$ c #DF999A",
"% c #DE9A9A",
"& c #DF9A9A",
"* c #DF9A9B",
"= c #DF9B9C",
"- c #E09B9C",
"; c #F5DFDF",
/* pixels */
"            XO&====&OX            ",
"          X$==========&X          ",
"         $==============$         ",
"        $================&        ",
"       &==================&       ",
"      $====================@      ",
"     X======================X     ",
"     &======================&     ",
"    .========================X    ",
"    O========================+    ",
"    &========================&    ",
"    -=========================    ",
"    ==========================    ",
"    ==========================    ",
"    ==========================    ",
"    &========;;;;;;;;========%    ",
"    O========================+    ",
"    .========================.    ",
"     &======================%     ",
"     .======================X     ",
"      $====================+      ",
"       %==================&       ",
"        &================&        ",
"         $==============+         ",
"          o#==========&X          ",
"            .+&===*%+.            "
};
