/* XPM */
static char *maximize_inactive[] = {
/* columns rows colors chars-per-pixel */
"34 26 16 1 ",
"  c #DC8F90",
". c #DC9091",
"X c #DD9091",
"o c #DD9192",
"O c #DD9293",
"+ c #DD9394",
"@ c #DE9394",
"# c #DD9495",
"$ c #DE9495",
"% c #DD9596",
"& c #DE9596",
"* c #DE9697",
"= c #DF9697",
"- c #DE9797",
"; c #DE9798",
": c #F4DDDE",
/* pixels */
"            XO&*--*&OX            ",
"          X$;;;;;;;;;;&X          ",
"         $;;;;;;;;;;;;;;$         ",
"        $;;;;;;;;;;;;;;;;&        ",
"       &;;;;;;;;;;;;;;;;;;&       ",
"      $;;;;;;;;;;;;;;;;;;;;@      ",
"     X;;;;;;;;;;;;;;;;;;;;;;X     ",
"     &;;;;;;;;;;;;;;;;;;;;;;&     ",
"    .;;;;;;;;;;;;;;;;;;;;;;;;X    ",
"    O;;;;;;;;::::::::;;;;;;;;@    ",
"    &;;;;;;;;:;;;;;;:;;;;;;;;&    ",
"    =;;;;;;;;:;;;;;;:;;;;;;;;*    ",
"    -;;;;;;;;:;;;;;;:;;;;;;;;-    ",
"    -;;;;;;;;:;;;;;;:;;;;;;;;-    ",
"    *;;;;;;;;:;;;;;;:;;;;;;;;*    ",
"    &;;;;;;;;:;;;;;;:;;;;;;;;%    ",
"    O;;;;;;;;::::::::;;;;;;;;@    ",
"    .;;;;;;;;;;;;;;;;;;;;;;;;.    ",
"     &;;;;;;;;;;;;;;;;;;;;;;%     ",
"     .;;;;;;;;;;;;;;;;;;;;;;X     ",
"      $;;;;;;;;;;;;;;;;;;;;+      ",
"       %;;;;;;;;;;;;;;;;;;&       ",
"        &;;;;;;;;;;;;;;;;&        ",
"         $;;;;;;;;;;;;;;+         ",
"          o#;;;;;;;;;;&X          ",
"            .@&*--&%@.            "
};
