/* XPM */
static char *maximize_pressed[] = {
/* columns rows colors chars-per-pixel */
"34 34 22 1 ",
"  c #BF2D2F",
". c #C02F31",
"X c #C03032",
"o c #C03133",
"O c #C13436",
"+ c #C23739",
"@ c #C2383A",
"# c #C3393A",
"$ c #C3393B",
"% c #C33B3D",
"& c #C43C3E",
"* c #C43D3E",
"= c #C54042",
"- c #C54143",
"; c #C64244",
": c #C64345",
"> c #C74647",
", c #C84A4C",
"< c #C84B4C",
"1 c #C84B4D",
"2 c #C94C4E",
"3 c white",
/* pixels */
"           .#->,11,>-#.           ",
"         O:122222222221;O         ",
"       o:2222222222222222;o       ",
"      @<222222222222222222<@      ",
"     &2222222222222222222222*     ",
"    *222222222222222222222222&    ",
"   @22222222222222222222222222@   ",
"  o<22222222222222222222222222<o  ",
"  :2222222222222222222222222222;  ",
" O222222222222222222222222222222O ",
" :222222222222222222222222222222; ",
".12222222222222222222222222222221.",
"$22222222222222222222222222222222#",
"-22222222222233333333222222222222-",
">22222222222232222223222222222222>",
",22222222222232222223222222222222,",
"1222222222222322222232222222222221",
"1222222222222322222232222222222221",
",22222222222232222223222222222222,",
">22222222222232222223222222222222>",
"-22222222222233333333222222222222=",
"#22222222222222222222222222222222#",
".12222222222222222222222222222221.",
" ;222222222222222222222222222222; ",
" O222222222222222222222222222222O ",
"  :2222222222222222222222222222;  ",
"  o<22222222222222222222222222<X  ",
"   @22222222222222222222222222+   ",
"    &222222222222222222222222&    ",
"     %2222222222222222222222*     ",
"      @<222222222222222222<+      ",
"       o;2222222222222222;X       ",
"         O;122222222221;O         ",
"           .#->,11,>-#.           "
};
