/* XPM */
static char *maximize_prelight[] = {
/* columns rows colors chars-per-pixel */
"34 26 57 1 ",
"  c #A42728",
". c #A72729",
"X c #AA282A",
"o c #AF292B",
"O c #B22A2C",
"+ c #B92C2E",
"@ c #BA2C2E",
"# c #BB2C2E",
"$ c #BE2D2F",
"% c #BF2D2F",
"& c #A82F31",
"* c #A83031",
"= c #A93132",
"- c #B34243",
"; c #B34244",
": c #B34344",
"> c #B34345",
", c #B94D4F",
"< c #B94E4F",
"1 c #B94F50",
"2 c #BA4F51",
"3 c #CC5759",
"4 c #CD595B",
"5 c #CD5A5C",
"6 c #CE5D5F",
"7 c #CE5E60",
"8 c #CE5F61",
"9 c #C46061",
"0 c #C56061",
"q c #C56161",
"w c #C56162",
"e c #C56263",
"r c #C56264",
"t c #CF6163",
"y c #CF6263",
"u c #CF6264",
"i c #CA6B6C",
"p c #CB6C6D",
"a c #CB6D6E",
"s c #D16769",
"d c #D47172",
"f c #D47173",
"g c #D47274",
"h c #D57678",
"j c #D67778",
"k c #D2797A",
"l c #D37A7C",
"z c #D78283",
"x c #D98284",
"c c #D98385",
"v c #DA8385",
"b c #D88485",
"n c #DA8485",
"m c #D98486",
"M c #D88586",
"N c #DA8486",
"B c white",
/* pixels */
"%%%%%%%%%%%%#OX.  .XO#%%%%%%%%%%%%",
"%%%%%%%%%%+X=1akMMkp1=X@%%%%%%%%%%",
"%%%%%%%%$o*eNhs8448shmr*o$%%%%%%%%",
"%%%%%%%$X>zf5333333335fz;X$%%%%%%%",
"%%%%%%$X2ct333333333333yn1X$%%%%%%",
"%%%%%%o:x6333333333333336n;o%%%%%%",
"%%%%%+*zt3333333333333333yz*@%%%%%",
"%%%%%Xed333333333333333333gqX%%%%%",
"%%%%#=N53333333333333333335c*#%%%%",
"%%%%O2h333333BBBBBBBB333333j1O%%%%",
"%%%%Xps333333B333333B333333spX%%%%",
"%%%%.l7333333B333333B3333338k.%%%%",
"%%%% b5333333B333333B3333335b %%%%",
"%%%% b5333333B333333B3333335b %%%%",
"%%%%.k7333333B333333B3333338k.%%%%",
"%%%%Xps333333B333333B333333siX%%%%",
"%%%%O1h333333BBBBBBBB333333j,O%%%%",
"%%%%#=c53333333333333333335c*#%%%%",
"%%%%%Xef333333333333333333g0X%%%%%",
"%%%%%@*zy3333333333333333uz*@%%%%%",
"%%%%%%o-v6333333333333336n;o%%%%%%",
"%%%%%%$X1vy333333333333uv<X$%%%%%%",
"%%%%%%%$X;zg5333333335gz;X$%%%%%%%",
"%%%%%%%%$o&9cjs8558sjcw*o$%%%%%%%%",
"%%%%%%%%%%@X*<pkbbkp,*X@%%%%%%%%%%",
"%%%%%%%%%%%%#OX.  .XO#%%%%%%%%%%%%"
};
