/* XPM */
static char *top_left_active[] = {
/* columns rows colors chars-per-pixel */
"8 38 5 1 ",
"  c None",
". c #BF2D2E",
"X c #BF2D2F",
"o c #BF2C30",
"O c #C02D2F",
/* pixels */
"     .XX",
"   XXXXX",
"  .XXXXX",
" XXXXXXX",
" XXXXXXX",
"oXXXXXXX",
"OXXXXXXX",
"XXXXXXXX",
"XXXXXXXX",
"XXXXXXXX",
"XXXXXXXX",
"XXXXXXXX",
"XXXXXXXX",
"XXXXXXXX",
"XXXXXXXX",
"XXXXXXXX",
"XXXXXXXX",
"XXXXXXXX",
"XXXXXXXX",
"XXXXXXXX",
"XXXXXXXX",
"XXXXXXXX",
"XXXXXXXX",
"XXXXXXXX",
"XXXXXXXX",
"XXXXXXXX",
"XXXXXXXX",
"XXXXXXXX",
"XXXXXXXX",
"XXXXXXXX",
"XXXXXXXX",
"XXXXXXXX",
"XXXXXXXX",
"XXXXXXXX",
"XXXXXXXX",
"XXXXXXXX",
"XXXXXXXX",
"XXXXXXXX"
};
