/* XPM */
static char *top_left_inactive[] = {
/* columns rows colors chars-per-pixel */
"8 38 7 1 ",
"  c None",
". c #D88F8F",
"X c #D78E90",
"o c #D78F91",
"O c #D98E90",
"+ c #D88F90",
"@ c #D98F90",
/* pixels */
"     +@+",
"   O++++",
"  o+++++",
" O++++++",
" +++++++",
".+++++++",
"X+++++++",
"++++++++",
"++++++++",
"++++++++",
"++++++++",
"++++++++",
"++++++++",
"++++++++",
"++++++++",
"++++++++",
"++++++++",
"++++++++",
"++++++++",
"++++++++",
"++++++++",
"++++++++",
"++++++++",
"++++++++",
"++++++++",
"++++++++",
"++++++++",
"++++++++",
"++++++++",
"++++++++",
"++++++++",
"++++++++",
"++++++++",
"++++++++",
"++++++++",
"++++++++",
"++++++++",
"++++++++"
};
