/* XPM */
static char *close_inactive[] = {
/* columns rows colors chars-per-pixel */
"34 26 22 1 ",
"  c #885758",
". c #A37A7A",
"X c #A27A7B",
"o c #C4A7A7",
"O c #C6AAAA",
"+ c #C7ABAB",
"@ c #EDDFDF",
"# c #EEE0E0",
"$ c #EEE1E1",
"% c #EFE3E3",
"& c #F0E4E4",
"* c #F0E5E5",
"= c #F1E5E5",
"- c #F2E7E7",
"; c #F2E8E8",
": c #F3E9E9",
"> c #F4EAEA",
", c #F6ECEC",
"< c #F6EDED",
"1 c #F7EDED",
"2 c #F8EFEF",
"3 c #F9F0F0",
/* pixels */
"3333333333331:=%$$%=:1333333333333",
"33333333331&##########=13333333333",
"333333333;##############;333333333",
"33333332&################=23333333",
"3333333=##################=3333333",
"333333;####################;333333",
"33333<######################133333",
"33333=######################*33333",
"33331########@######@########13333",
"3333:#######@.O####O.@#######>3333",
"3333=########+ o##+ o########*3333",
"3333%#########+ o+ o#########%3333",
"3333$##########O  O##########$3333",
"3333$##########O  O##########$3333",
"3333%#########+ o+ o#########%3333",
"3333=########+ o##+ o########*3333",
"3333:#######@XO####O.@#######>3333",
"33331########@######@########13333",
"33333=######################*33333",
"33333,######################133333",
"333333;####################-333333",
"3333333*##################=3333333",
"33333332=################*23333333",
"333333333;##############-333333333",
"33333333331*##########=<3333333333",
"3333333333331>*%$$%*>1333333333333"
};
