/* XPM */
static char *close_pressed[] = {
/* columns rows colors chars-per-pixel */
"34 26 28 1 ",
"  c #581416",
". c #774042",
"X c #784143",
"o c #A0797A",
"O c #A37E7F",
"+ c #A47E7F",
"@ c #D4C0C0",
"# c #D5C2C2",
"$ c #D7C5C5",
"% c #DBCBCB",
"& c #DFD0D0",
"* c #E0D0D0",
"= c #E0D1D1",
"- c #E5D9D9",
"; c #E5DADA",
": c #E6DADA",
"> c #E9DCDC",
", c #EBDEDE",
"< c #F3EDED",
"1 c #F4ECEC",
"2 c #F4EDED",
"3 c #F5EDED",
"4 c #F5EEEE",
"5 c #F5EFEF",
"6 c #F6EFEF",
"7 c #FAF4F4",
"8 c #FBF7F7",
"9 c #FCF8F8",
/* pixels */
"9999999999994>*%$$%*>4999999999999",
"99999999991&##########*19999999999",
"999999998-##############-899999999",
"99999997&################*79999999",
"9999998*##################*8999999",
"999999-####################:999999",
"999992######################199999",
"99999*######################&99999",
"99994########@######@########49999",
"9999>#######@.O####O.@#######,9999",
"9999*########+ o##+ o########&9999",
"9999%#########+ o+ o#########%9999",
"9999$##########O  O##########$9999",
"9999$##########O  O##########$9999",
"9999%#########+ o+ o#########%9999",
"9999*########+ o##+ o########&9999",
"9999>#######@XO####O.@#######,9999",
"99996########@######@########49999",
"99999*######################&99999",
"99999<######################399999",
"999999-####################;999999",
"9999999=##################*8999999",
"99999997*################&79999999",
"999999998-##############;899999999",
"99999999995=##########*29999999999",
"9999999999994,&%$$%&,6999999999999"
};
