/* XPM */
static char *close_prelight[] = {
/* columns rows colors chars-per-pixel */
"34 34 29 1 ",
"  c #2C0B0C",
". c #573B3B",
"X c #583C3C",
"o c #8E7979",
"O c #927D7E",
"+ c #937E7F",
"@ c #D1C5C5",
"# c #D3C7C7",
"$ c #D3C8C8",
"% c #D4C9C9",
"& c #D6CCCC",
"* c #D8CDCD",
"= c #D9CECE",
"- c #D9CFCF",
"; c #DACFCF",
": c #DAD0D0",
"> c #DBD2D2",
", c #DCD3D3",
"< c #DDD3D3",
"1 c #DED4D4",
"2 c #DED5D5",
"3 c #DFD5D5",
"4 c #DFD6D6",
"5 c #E1D8D8",
"6 c #E2D9D9",
"7 c #E2DADA",
"8 c #E3DADA",
"9 c #E3DBDB",
"0 c #E5DDDD",
/* pixels */
"0000000000091;&%$$%&;3900000000000",
"0000000005=############=5000000000",
"00000008*################=80000000",
"0000002$##################$4000000",
"00000,######################>00000",
"0000,########################,0000",
"0002##########################4000",
"008$##########################$700",
"00*############################=00",
"05##############################50",
"0=##############################=0",
"9################################9",
"1############@######@############2",
";###########@.O####O.@###########:",
"&############+ o##+ o############&",
"%#############+ o+ o#############%",
"$##############O  O##############$",
"$##############O  O##############$",
"%#############+ o+ o#############%",
"&############+ o##+ o############&",
"-###########@XO####O.@###########:",
"1############@######@############2",
"9################################9",
"0=##############################=0",
"06##############################50",
"00=############################=00",
"008$##########################$700",
"0004##########################4000",
"0000,########################,0000",
"00000<######################>00000",
"0000004$##################$4000000",
"00000007=################=70000000",
"0000000005=############=6000000000",
"0000000000092:&%$$%&:2900000000000"
};
