/* XPM */
static char *hide_pressed[] = {
/* columns rows colors chars-per-pixel */
"34 26 22 1 ",
"  c #561214",
". c #D5C2C2",
"X c #D7C5C5",
"o c #DBCBCB",
"O c #DFD0D0",
"+ c #E0D0D0",
"@ c #E0D1D1",
"# c #E5D9D9",
"$ c #E5DADA",
"% c #E6DADA",
"& c #E9DCDC",
"* c #EBDEDE",
"= c #F3EDED",
"- c #F4ECEC",
"; c #F4EDED",
": c #F5EDED",
"> c #F5EEEE",
", c #F5EFEF",
"< c #F6EFEF",
"1 c #FAF4F4",
"2 c #FBF7F7",
"3 c #FCF8F8",
/* pixels */
"333333333333>&+oXXo+&>333333333333",
"3333333333-O..........+-3333333333",
"333333332#..............#233333333",
"33333331O................+13333333",
"3333332+..................+2333333",
"333333#....................%333333",
"33333;......................-33333",
"33333+......................O33333",
"3333>........................>3333",
"3333&........................*3333",
"3333+........................O3333",
"3333o........................o3333",
"3333X........................X3333",
"3333X........................X3333",
"3333o........................o3333",
"3333+........        ........O3333",
"3333&........................*3333",
"3333<........................>3333",
"33333+......................O33333",
"33333=......................:33333",
"333333#....................$333333",
"3333333@..................+2333333",
"33333331+................O13333333",
"333333332#..............$233333333",
"3333333333,@..........+;3333333333",
"333333333333>*OoXXoO*<333333333333"
};
