/* XPM */
static char *hide_inactive[] = {
/* columns rows colors chars-per-pixel */
"34 26 16 1 ",
"  c #875556",
". c #EEE0E0",
"X c #EEE1E1",
"o c #EFE3E3",
"O c #F0E4E4",
"+ c #F0E5E5",
"@ c #F1E5E5",
"# c #F2E7E7",
"$ c #F2E8E8",
"% c #F3E9E9",
"& c #F4EAEA",
"* c #F6ECEC",
"= c #F6EDED",
"- c #F7EDED",
"; c #F8EFEF",
": c #F9F0F0",
/* pixels */
"::::::::::::-%@oXXo@%-::::::::::::",
"::::::::::-O..........@-::::::::::",
":::::::::$..............$:::::::::",
":::::::;O................@;:::::::",
":::::::@..................@:::::::",
"::::::$....................$::::::",
":::::=......................-:::::",
":::::@......................+:::::",
"::::-........................-::::",
"::::%........................&::::",
"::::@........................+::::",
"::::o........................o::::",
"::::X........................X::::",
"::::X........................X::::",
"::::o........................o::::",
"::::@........        ........+::::",
"::::%........................&::::",
"::::-........................-::::",
":::::@......................+:::::",
":::::*......................-:::::",
"::::::$....................#::::::",
":::::::+..................@:::::::",
":::::::;@................+;:::::::",
":::::::::$..............#:::::::::",
"::::::::::-+..........@=::::::::::",
"::::::::::::-&+oXXo+&-::::::::::::"
};
