/* XPM */
static char *maximize_prelight[] = {
/* columns rows colors chars-per-pixel */
"34 34 23 1 ",
"  c #2B090A",
". c #D3C7C7",
"X c #D3C8C8",
"o c #D4C9C9",
"O c #D6CCCC",
"+ c #D8CDCD",
"@ c #D9CECE",
"# c #D9CFCF",
"$ c #DACFCF",
"% c #DAD0D0",
"& c #DBD2D2",
"* c #DCD3D3",
"= c #DDD3D3",
"- c #DED4D4",
"; c #DED5D5",
": c #DFD5D5",
"> c #DFD6D6",
", c #E1D8D8",
"< c #E2D9D9",
"1 c #E2DADA",
"2 c #E3DADA",
"3 c #E3DBDB",
"4 c #E5DDDD",
/* pixels */
"444444444443-$OoXXoO$:344444444444",
"444444444,@............@,444444444",
"44444442+................@24444444",
"444444;X..................X>444444",
"44444*......................&44444",
"4444*........................*4444",
"444;..........................>444",
"442X..........................X144",
"44+............................@44",
"4,..............................,4",
"4@..............................@4",
"3................................3",
"-................................;",
"$............        ............%",
"O............ ...... ............O",
"o............ ...... ............o",
"X............ ...... ............X",
"X............ ...... ............X",
"o............ ...... ............o",
"O............ ...... ............O",
"#............        ............%",
"-................................;",
"3................................3",
"4@..............................@4",
"4<..............................,4",
"44@............................@44",
"442X..........................X144",
"444>..........................>444",
"4444*........................*4444",
"44444=......................&44444",
"444444>X..................X>444444",
"44444441@................@14444444",
"444444444,@............@<444444444",
"444444444443;%OoXXoO%;344444444444"
};
