/* XPM */
static char *top_left_inactive[] = {
/* columns rows colors chars-per-pixel */
"8 38 7 1 ",
"  c None",
". c #F9EFEF",
"X c #FAEFEF",
"o c #F9F0F0",
"O c #F9F1F1",
"+ c #FAF0F0",
"@ c #FAF1F1",
/* pixels */
"     @Oo",
"   Xoooo",
"  +ooooo",
" Xoooooo",
" ooooooo",
"@ooooooo",
".ooooooo",
"oooooooo",
"oooooooo",
"oooooooo",
"oooooooo",
"oooooooo",
"oooooooo",
"oooooooo",
"oooooooo",
"oooooooo",
"oooooooo",
"oooooooo",
"oooooooo",
"oooooooo",
"oooooooo",
"oooooooo",
"oooooooo",
"oooooooo",
"oooooooo",
"oooooooo",
"oooooooo",
"oooooooo",
"oooooooo",
"oooooooo",
"oooooooo",
"oooooooo",
"oooooooo",
"oooooooo",
"oooooooo",
"oooooooo",
"oooooooo",
"oooooooo"
};
