/* XPM */
static char *close_active[] = {
/* columns rows colors chars-per-pixel */
"34 26 25 1 ",
"  c #383434",
". c #3A3535",
"X c #3A3636",
"o c #3B3636",
"O c #3B3737",
"+ c #3C3737",
"@ c #413B3B",
"# c #403C3C",
"$ c #413C3C",
"% c #423D3D",
"& c #433D3D",
"* c #453F3F",
"= c #463F3F",
"- c #464040",
"; c #474242",
": c #484242",
"> c #4A4343",
", c #4B4444",
"< c #4C4545",
"1 c #8D7C7C",
"2 c #8E7D7D",
"3 c #928080",
"4 c #C9AEAF",
"5 c #CAAFB0",
"6 c #F5D3D4",
/* pixels */
"            o#=;>>;=#o            ",
"          +-,,,,,,,,,,=+          ",
"         &,,,,,,,,,,,,,,&         ",
"       .-,,,,,,,,,,,,,,,,=.       ",
"       =,,,,,,,,,,,,,,,,,,=       ",
"      &,,,,,,,,,,,,,,,,,,,,&      ",
"     +,,,,,,,,,,,,,,,,,,,,,,+     ",
"     =,,,,,,,,,,,,,,,,,,,,,,=     ",
"    X,,,,,,,,<,,,,,,<,,,,,,,,o    ",
"    #,,,,,,,<52,,,,25<,,,,,,,$    ",
"    =,,,,,,,,163,,163,,,,,,,,=    ",
"    :,,,,,,,,,163163,,,,,,,,,;    ",
"    >,,,,,,,,,,2662,,,,,,,,,,>    ",
"    >,,,,,,,,,,2662,,,,,,,,,,>    ",
"    ;,,,,,,,,,163163,,,,,,,,,;    ",
"    =,,,,,,,,163,,163,,,,,,,,*    ",
"    #,,,,,,,<42,,,,25<,,,,,,,@    ",
"    X,,,,,,,,<,,,,,,<,,,,,,,,X    ",
"     =,,,,,,,,,,,,,,,,,,,,,,*     ",
"     O,,,,,,,,,,,,,,,,,,,,,,+     ",
"      &,,,,,,,,,,,,,,,,,,,,%      ",
"       *,,,,,,,,,,,,,,,,,,=       ",
"       .=,,,,,,,,,,,,,,,,=.       ",
"         &,,,,,,,,,,,,,,%         ",
"          O*,,,,,,,,,,=+          ",
"            X$=;>>;*$X            "
};
