/* XPM */
static char *close_inactive[] = {
/* columns rows colors chars-per-pixel */
"34 26 21 1 ",
"  c #2E2929",
". c #2F2A2A",
"X c #302A2A",
"o c #302B2B",
"O c #312B2B",
"+ c #342E2E",
"@ c #342F2F",
"# c #353030",
"$ c #383131",
"% c #383232",
"& c #393333",
"* c #393434",
"= c #3B3434",
"- c #3B3535",
"; c #3C3636",
": c #6C5F5F",
"> c #6D5F5F",
", c #706262",
"< c #998585",
"1 c #9A8585",
"2 c #BAA1A1",
/* pixels */
"            X+%&==&%+X            ",
"          O%----------%O          ",
"         #--------------#         ",
"       .%----------------%.       ",
"       %------------------%       ",
"      #--------------------#      ",
"     o----------------------O     ",
"     %----------------------%     ",
"    X--------;------;--------X    ",
"    @-------;1>---->1;-------+    ",
"    %--------:2,--:2,--------%    ",
"    *---------:2,:2,---------*    ",
"    =---------->22>----------=    ",
"    =---------->22>----------=    ",
"    *---------:2,:2,---------&    ",
"    %--------:2,--:2,--------%    ",
"    +-------;<>---->1;-------+    ",
"    X--------;------;--------X    ",
"     %----------------------%     ",
"     o----------------------O     ",
"      #--------------------#      ",
"       $------------------%       ",
"       .%----------------%.       ",
"         #--------------#         ",
"          o$----------%o          ",
"            X+%&==&%+X            "
};
