/* XPM */
static char *close_prelight[] = {
/* columns rows colors chars-per-pixel */
"34 34 25 1 ",
"  c #302C2D",
". c #322E2F",
"X c #343031",
"o c #353132",
"O c #363334",
"+ c #373334",
"@ c #383435",
"# c #393536",
"$ c #3A3637",
"% c #3B3738",
"& c #3C3839",
"* c #3D393A",
"= c #3E3A3B",
"- c #3F3B3C",
"; c #403D3D",
": c #433F40",
"> c #434041",
", c #444142",
"< c #454243",
"1 c #8C8A8B",
"2 c #8D8B8B",
"3 c #918F90",
"4 c #CDCCCD",
"5 c #CECDCD",
"6 c #FDFDFD",
/* pixels */
"           .@*;:>>:;*+.           ",
"         o=,,,,,,,,,,,,=o         ",
"       .-,,,,,,,,,,,,,,,,=.       ",
"      +>,,,,,,,,,,,,,,,,,,>O      ",
"     $,,,,,,,,,,,,,,,,,,,,,,%     ",
"    $,,,,,,,,,,,,,,,,,,,,,,,,$    ",
"   +,,,,,,,,,,,,,,,,,,,,,,,,,,O   ",
"  .>,,,,,,,,,,,,,,,,,,,,,,,,,,>.  ",
"  -,,,,,,,,,,,,,,,,,,,,,,,,,,,,=  ",
" o,,,,,,,,,,,,,,,,,,,,,,,,,,,,,,o ",
" =,,,,,,,,,,,,,,,,,,,,,,,,,,,,,,= ",
".,,,,,,,,,,,,,,,,,,,,,,,,,,,,,,,,.",
"@,,,,,,,,,,,,<,,,,,,<,,,,,,,,,,,,+",
"*,,,,,,,,,,,<52,,,,25<,,,,,,,,,,,&",
";,,,,,,,,,,,,163,,163,,,,,,,,,,,,;",
":,,,,,,,,,,,,,163163,,,,,,,,,,,,,:",
">,,,,,,,,,,,,,,2662,,,,,,,,,,,,,,>",
">,,,,,,,,,,,,,,2662,,,,,,,,,,,,,,>",
":,,,,,,,,,,,,,163163,,,,,,,,,,,,,:",
";,,,,,,,,,,,,163,,163,,,,,,,,,,,,;",
"*,,,,,,,,,,,<42,,,,25<,,,,,,,,,,,&",
"@,,,,,,,,,,,,<,,,,,,<,,,,,,,,,,,,+",
".,,,,,,,,,,,,,,,,,,,,,,,,,,,,,,,,.",
" =,,,,,,,,,,,,,,,,,,,,,,,,,,,,,,= ",
" X,,,,,,,,,,,,,,,,,,,,,,,,,,,,,,o ",
"  =,,,,,,,,,,,,,,,,,,,,,,,,,,,,=  ",
"  .>,,,,,,,,,,,,,,,,,,,,,,,,,,>.  ",
"   O,,,,,,,,,,,,,,,,,,,,,,,,,,O   ",
"    $,,,,,,,,,,,,,,,,,,,,,,,,$    ",
"     #,,,,,,,,,,,,,,,,,,,,,,%     ",
"      O>,,,,,,,,,,,,,,,,,,>O      ",
"       .=,,,,,,,,,,,,,,,,=.       ",
"         o=,,,,,,,,,,,,=X         ",
"           .+&;:>>:;&+.           "
};
