/* XPM */
static char *close_pressed[] = {
/* columns rows colors chars-per-pixel */
"34 26 29 1 ",
"  c #383434",
". c #393535",
"X c #3C3737",
"o c #3E3A3A",
"O c #403A3A",
"+ c #403B3B",
"@ c #413B3B",
"# c #423C3C",
"$ c #4E4545",
"% c #4C4747",
"& c #4E4747",
"* c #524A4A",
"= c #584E4E",
"- c #584F4F",
"; c #594F4F",
": c #595050",
"> c #595151",
", c #5D5555",
"< c #5F5555",
"1 c #635858",
"2 c #635959",
"3 c #655A5A",
"4 c #665B5B",
"5 c #9D8989",
"6 c #9E8A8A",
"7 c #A18D8D",
"8 c #D0B4B5",
"9 c #D1B5B6",
"0 c #F5D3D4",
/* pixels */
"            O%:,22,;%O            ",
"          #>3333333333:@          ",
"        .*33333333333333*.        ",
"       X>3333333333333333;X       ",
"      .:333333333333333333;.      ",
"      *33333333333333333333*      ",
"     @3333333333333333333333@     ",
"     :3333333333333333333333;     ",
"    o333333334333333433333333O    ",
"    %333333349633336943333333&    ",
"    ;333333335073350733333333;    ",
"    <333333333507507333333333,    ",
"    13333333333600633333333331    ",
"    13333333333600633333333331    ",
"    ,333333333507507333333333,    ",
"    ;333333335073350733333333-    ",
"    %333333348633336943333333$    ",
"    o333333334333333433333333o    ",
"     ;3333333333333333333333-     ",
"     +3333333333333333333333@     ",
"      *33333333333333333333*      ",
"       -333333333333333333;.      ",
"       X;3333333333333333;X       ",
"        .*33333333333333*.        ",
"          +=3333333333;@          ",
"            o&;,11,-&o            "
};
