/* XPM */
static char *maximize_active[] = {
/* columns rows colors chars-per-pixel */
"34 26 19 1 ",
"  c #383434",
". c #3A3535",
"X c #3A3636",
"o c #3B3636",
"O c #3B3737",
"+ c #3C3737",
"@ c #413B3B",
"# c #403C3C",
"$ c #413C3C",
"% c #423D3D",
"& c #433D3D",
"* c #453F3F",
"= c #463F3F",
"- c #464040",
"; c #474242",
": c #484242",
"> c #4A4343",
", c #4B4444",
"< c #F7D5D6",
/* pixels */
"            o#=;>>;=#o            ",
"          +-,,,,,,,,,,=+          ",
"         &,,,,,,,,,,,,,,&         ",
"       .-,,,,,,,,,,,,,,,,=.       ",
"       =,,,,,,,,,,,,,,,,,,=       ",
"      &,,,,,,,,,,,,,,,,,,,,&      ",
"     +,,,,,,,,,,,,,,,,,,,,,,+     ",
"     =,,,,,,,,,,,,,,,,,,,,,,=     ",
"    X,,,,,,,,,,,,,,,,,,,,,,,,o    ",
"    #,,,,,,,,<<<<<<<<,,,,,,,,$    ",
"    =,,,,,,,,<,,,,,,<,,,,,,,,=    ",
"    :,,,,,,,,<,,,,,,<,,,,,,,,;    ",
"    >,,,,,,,,<,,,,,,<,,,,,,,,>    ",
"    >,,,,,,,,<,,,,,,<,,,,,,,,>    ",
"    ;,,,,,,,,<,,,,,,<,,,,,,,,;    ",
"    =,,,,,,,,<,,,,,,<,,,,,,,,*    ",
"    #,,,,,,,,<<<<<<<<,,,,,,,,@    ",
"    X,,,,,,,,,,,,,,,,,,,,,,,,X    ",
"     =,,,,,,,,,,,,,,,,,,,,,,*     ",
"     O,,,,,,,,,,,,,,,,,,,,,,+     ",
"      &,,,,,,,,,,,,,,,,,,,,%      ",
"       *,,,,,,,,,,,,,,,,,,=       ",
"       .=,,,,,,,,,,,,,,,,=.       ",
"         &,,,,,,,,,,,,,,%         ",
"          O*,,,,,,,,,,=+          ",
"            X$=;>>;*$X            "
};
